HIERARCHY
ROOT Hips
{
  OFFSET 0.213343 82.8843 0.148548
  CHANNELS 6 Xposition Yposition Zposition Zrotation Xrotation Yrotation
  JOINT Spine
  {
    OFFSET -0.000355721 21.3001 -0.016921
    CHANNELS 3 Zrotation Xrotation Yrotation
    JOINT LeftArm
    {
      OFFSET 13.5181 21.3012 0
      CHANNELS 3 Zrotation Xrotation Yrotation
      JOINT LeftForeArm
      {
        OFFSET 24.5783 0 0
        CHANNELS 3 Zrotation Xrotation Yrotation
        JOINT LeftHand
        {
          OFFSET 24.5783 0 0
          CHANNELS 3 Zrotation Xrotation Yrotation
          End Site
          {
            OFFSET 7.32568 1.52588e-05 0.0169305
          }
        }
      }
    }
    JOINT Head
    {
      OFFSET 0 27.4458 -0.00489235
      CHANNELS 3 Zrotation Xrotation Yrotation
      End Site
      {
        OFFSET 0 0 0
      }
    }
    JOINT RightArm
    {
      OFFSET -13.5174 21.3012 0
      CHANNELS 3 Zrotation Xrotation Yrotation
      JOINT RightForeArm
      {
        OFFSET -24.5783 0 0
        CHANNELS 3 Zrotation Xrotation Yrotation
        JOINT RightHand
        {
          OFFSET -24.5783 0 0
          CHANNELS 3 Zrotation Xrotation Yrotation
          End Site
          {
            OFFSET -7.32568 1.52588e-05 0.0169305
          }
        }
      }
    }
  }
  JOINT RightUpLeg
  {
    OFFSET -8.44614 -9.41038 0.835684
    CHANNELS 3 Zrotation Xrotation Yrotation
    JOINT RightLeg
    {
      OFFSET 0 -40.9639 0
      CHANNELS 3 Zrotation Xrotation Yrotation
      JOINT RightFoot
      {
        OFFSET 0 -40.9639 0
        CHANNELS 3 Zrotation Xrotation Yrotation
        End Site
        {
          OFFSET 0.50614 -9.67405 14.6709
        }
      }
    }
  }
  JOINT LeftUpLeg
  {
    OFFSET 8.44614 -9.41038 0.835684
    CHANNELS 3 Zrotation Xrotation Yrotation
    JOINT LeftLeg
    {
      OFFSET 0 -40.9639 0
      CHANNELS 3 Zrotation Xrotation Yrotation
      JOINT LeftFoot
      {
        OFFSET 0 -40.9639 0
        CHANNELS 3 Zrotation Xrotation Yrotation
        End Site
        {
          OFFSET -0.50614 -9.67405 14.6709
        }
      }
    }
  }
}
MOTION
Frames:	9
Frame Time:	0.0333333
-6.88281 79.5241 -6.4543 11.6051 -5.81749 -19.8555 7.41406 6.04891 0.918088 -42.0111 0.7556 -18.0406 -0.00110139 -0.00034697 -75.3653 3.51758 20.3954 26.0146 8.45793 -26.8675 21.9369 40.1397 4.11739 70.5577 -0.0125469 3.31099e-06 76.2347 7.24318 32.8388 -19.9993 -30.4046 -31.8225 -15.2745 -25.1004 65.3373 22.1603 13.0319 -58.6323 4.50949 15.1254 -28.1472 19.728 2.28486 38.8028 -10.0503 -18.7219 -33.8053 -2.33871 
-6.55868 79.9283 -6.60121 11.6105 -3.89109 -21.3844 7.40017 6.52212 1.21624 -42.6392 1.67219 -15.7913 -0.00111751 -0.000278003 -78.3206 3.61649 20.2545 26.9503 8.54376 -25.2753 22.4913 40.2305 4.82046 70.0833 -0.013686 2.90475e-06 77.9508 5.38828 34.5525 -22.0714 -29.4114 -34.189 -14.8804 -24.0203 64.2008 21.2857 12.6751 -57.5979 4.11104 15.9304 -29.4199 19.9901 2.29132 37.8787 -10.1708 -17.6145 -33.6454 -0.204609 
-6.20179 80.2803 -6.63284 11.5373 -1.99605 -22.424 7.34017 6.86461 1.37041 -43.4717 2.57008 -13.9117 -0.00112735 -0.000225204 -80.5615 3.50137 20.5479 28.0856 8.73816 -23.879 23.0774 40.1898 5.31926 69.3998 -0.0148014 2.52946e-06 79.5265 4.06916 35.6155 -23.9214 -28.6931 -36.0685 -15.0883 -23.0012 63.0323 20.7544 12.7168 -56.7119 3.81344 16.6165 -30.9039 19.9757 2.6223 37.2894 -9.29664 -17.7154 -33.2003 0.202081 
-5.7861 80.5495 -6.56325 11.297 -0.429863 -22.9987 7.24642 7.17509 1.35454 -44.4048 3.58353 -12.5119 -0.00113257 -0.000191194 -81.9971 3.57397 21.2982 29.2308 9.0083 -22.7066 23.4704 40.4082 5.56173 68.3799 -0.0158822 2.15968e-06 81.0713 3.3396 36.0089 -25.5277 -28.4158 -37.2428 -15.7491 -21.6069 62.0429 20.1557 13.0202 -56.0232 3.69039 17.2774 -32.3052 19.9381 3.0064 37.1866 -8.67804 -17.9603 -32.9512 0.246975 
-5.34132 80.756 -6.40056 10.9547 0.822067 -23.413 7.10596 7.49989 1.23617 -45.3519 4.63947 -11.6145 -0.00113496 -0.000173272 -82.7515 3.69168 22.4649 30.1554 9.24207 -21.7863 23.6194 41.0562 5.5872 67.1579 -0.0169175 1.81252e-06 82.5155 3.09851 35.8441 -26.7554 -28.3077 -37.9584 -16.4329 -20.1071 61.1918 19.4941 13.3594 -55.4494 3.65988 18.0339 -33.4727 20.0901 3.2048 37.452 -8.26321 -18.0501 -32.9848 0.234546 
-4.89489 80.9261 -6.14168 10.6211 2.0315 -23.8598 6.89779 7.8161 1.10024 -46.2871 5.53232 -11.1481 -0.00113597 -0.000165171 -83.0921 3.72743 23.9976 30.6651 9.32781 -21.1408 23.6307 41.9588 5.47441 65.9363 -0.0178965 1.51364e-06 83.7551 3.10473 35.3604 -27.4111 -28.0665 -38.6237 -16.8984 -18.9484 60.3512 18.9493 13.6574 -54.8831 3.61588 18.8716 -34.6091 20.332 3.30444 37.9429 -7.76173 -18.154 -33.2412 0.181177 
-4.44864 81.0611 -5.79821 10.3393 3.35769 -24.2426 6.61102 8.08399 0.989207 -47.2064 6.12096 -11.0071 -0.00113631 -0.00016236 -83.2102 4.05593 25.8484 30.6656 9.2147 -20.7397 23.635 42.7763 5.31757 64.7939 -0.0188082 1.27271e-06 84.7522 3.06642 34.8558 -27.3435 -27.8078 -39.354 -17.2753 -17.9382 59.5541 18.3677 13.9507 -54.3221 3.56914 19.6982 -35.9453 20.4985 3.45152 38.6144 -7.20726 -18.3949 -33.6304 0.105373 
-4.00507 81.1612 -5.39761 10.0655 4.67826 -24.3558 6.25597 8.30405 0.901919 -48.0848 6.44411 -11.0971 -0.0011361 -0.000164077 -83.1381 4.56662 27.9455 30.19 8.91211 -20.479 23.6775 43.3061 5.23412 63.6537 -0.0196418 1.0888e-06 85.5122 2.73374 34.579 -26.5326 -27.673 -39.9258 -17.7185 -16.969 58.8332 17.689 14.3434 -53.8307 3.55712 20.4401 -37.3939 20.5985 3.61155 39.3991 -6.83751 -18.6738 -34.0832 0.0144033 
-3.56861 81.2455 -4.95775 9.72009 5.75961 -24.179 5.86512 8.51864 0.829402 -48.8664 6.66259 -11.348 -0.00113533 -0.000170357 -82.8741 5.09589 30.1626 29.3799 8.46468 -20.2283 23.7148 43.6203 5.35731 62.3907 -0.0203864 9.65246e-07 86.0223 1.958 34.6366 -25.1302 -27.6171 -40.088 -18.1923 -16.1036 58.1555 16.9875 14.8008 -53.4235 3.57302 21.0751 -38.6468 20.7292 3.6973 40.2128 -6.79002 -18.8291 -34.584 -0.0910961 
